:FULLY-SPECIFIED
:FORCE-ALL-JOINTS-BE-3DOF
:DEGREES
68
root 5.9282 16.7621 -28.0876 10.8481 2.82338 -3.67304
lfemur -33.7228 13.8841 -17.7405
ltibia 50.7688 0 0
lfoot -21.8578 -10.9887 0
ltoes 32.8508 0 0
rfemur -16.9121 -0.909906 21.6827
rtibia 30.3222 0 0
rfoot -27.3679 -17.4931 0
rtoes -7.69912 0 0
lowerback -3.73947 2.43148 3.19816
upperback -1.42427 3.13271 -0.233436
thorax 0.811994 1.56255 -1.89104
lowerneck -9.92506 -2.44041 2.15666
upperneck -5.3587 -3.40577 2.09811
head -0.031307 -1.71554 0.19336
lclavicle 2.0821e-14 7.50433e-15 0
lhumerus -40.6483 -12.7116 94.1559
lradius 43.9558 0 0
lwrist 7.79161 0 0
lhand -11.0818 2.41196 0
lfingers 7.12502 0 0
lthumb 14.9415 31.8519 0
rclavicle 2.0821e-14 7.50433e-15 0
rhumerus -39.5412 1.16212 -91.7374
rradius 42.4836 0 0
rwrist 7.23673 0 0
rhand -24.7378 -21.8969 0
rfingers 7.12502 0 0
rthumb 1.76476 -51.8679 0
69
root 5.95171 16.7585 -28.0541 10.8083 2.90912 -3.81209
lfemur -33.9164 13.6312 -17.3268
ltibia 50.4957 0 0
lfoot -21.6917 -10.1851 0
ltoes 32.1695 0 0
rfemur -16.6492 -1.11881 21.7543
rtibia 30.1435 0 0
rfoot -27.4411 -17.3835 0
rtoes -7.72149 0 0
lowerback -3.69633 2.5035 3.20633
upperback -1.45057 3.23057 -0.183655
thorax 0.762831 1.61063 -1.84375
lowerneck -9.9466 -2.50907 2.21646
upperneck -5.34311 -3.50401 2.06169
head -0.0255645 -1.76536 0.169348
lclavicle 1.98778e-14 7.98192e-15 0
lhumerus -40.7872 -12.4702 94.0164
lradius 44.0135 0 0
lwrist 7.89014 0 0
lhand -10.9786 2.4293 0
lfingers 7.12502 0 0
lthumb 15.0409 31.8614 0
rclavicle 1.98778e-14 7.98192e-15 0
rhumerus -39.4397 1.25637 -91.5659
rradius 42.6101 0 0
rwrist 7.22166 0 0
rhand -24.6029 -21.8127 0
rfingers 7.12502 0 0
rthumb 1.89507 -51.782 0
70
root 5.9787 16.7543 -28.0156 10.7627 3.00758 -3.97177
lfemur -34.1388 13.3407 -16.8516
ltibia 50.182 0 0
lfoot -21.501 -9.26239 0
ltoes 31.3872 0 0
rfemur -16.3474 -1.35869 21.8365
rtibia 29.9383 0 0
rfoot -27.5251 -17.2576 0
rtoes -7.74717 0 0
lowerback -3.64679 2.5862 3.21572
upperback -1.48077 3.34294 -0.12649
thorax 0.706375 1.66585 -1.78945
lowerneck -9.97133 -2.5879 2.28512
upperneck -5.32522 -3.61681 2.01988
head -0.0189702 -1.82256 0.141775
lclavicle 1.87946e-14 8.53035e-15 0
lhumerus -40.9467 -12.1931 93.8563
lradius 44.0797 0 0
lwrist 8.00329 0 0
lhand -10.8602 2.4492 0
lfingers 7.12502 0 0
lthumb 15.155 31.8723 0
rclavicle 1.87946e-14 8.53035e-15 0
rhumerus -39.3231 1.36461 -91.3691
rradius 42.7553 0 0
rwrist 7.20435 0 0
rhand -24.4479 -21.716 0
rfingers 7.12502 0 0
rthumb 2.0447 -51.6833 0
71
root 6.00855 16.7497 -27.9731 10.7122 3.11644 -4.14833
lfemur -34.3846 13.0195 -16.3263
ltibia 49.8352 0 0
lfoot -21.2901 -8.24215 0
ltoes 30.5221 0 0
rfemur -16.0138 -1.62392 21.9274
rtibia 29.7114 0 0
rfoot -27.6181 -17.1184 0
rtoes -7.77557 0 0
lowerback -3.59202 2.67763 3.22609
upperback -1.51415 3.46719 -0.0632843
thorax 0.643954 1.72689 -1.7294
lowerneck -9.99868 -2.67507 2.36104
upperneck -5.30543 -3.74153 1.97365
head -0.0116791 -1.8858 0.111288
lclavicle 1.7597e-14 9.13672e-15 0
lhumerus -41.1231 -11.8866 93.6792
lradius 44.1529 0 0
lwrist 8.1284 0 0
lhand -10.7291 2.47122 0
lfingers 7.12502 0 0
lthumb 15.2812 31.8844 0
rclavicle 1.7597e-14 9.13672e-15 0
rhumerus -39.1942 1.48428 -91.1514
rradius 42.916 0 0
rwrist 7.18522 0 0
rhand -24.2766 -21.6092 0
rfingers 7.12502 0 0
rthumb 2.21015 -51.5742 0
72
root 6.04062 16.7447 -27.9274 10.658 3.2334 -4.33801
lfemur -34.6488 12.6745 -15.7618
ltibia 49.4626 0 0
lfoot -21.0636 -7.14608 0
ltoes 29.5928 0 0
rfemur -15.6553 -1.90887 22.0251
rtibia 29.4676 0 0
rfoot -27.7179 -16.9689 0
rtoes -7.80608 0 0
lowerback -3.53317 2.77587 3.23724
upperback -1.55002 3.60068 0.00461974
thorax 0.576893 1.79248 -1.6649
lowerneck -10.0281 -2.76871 2.44261
upperneck -5.28417 -3.87553 1.92399
head -0.00384603 -1.95375 0.0785342
lclavicle 1.63104e-14 9.78817e-15 0
lhumerus -41.3125 -11.5574 93.489
lradius 44.2316 0 0
lwrist 8.26281 0 0
lhand -10.5884 2.49486 0
lfingers 7.12502 0 0
lthumb 15.4168 31.8973 0
rclavicle 1.63104e-14 9.78817e-15 0
rhumerus -39.0557 1.61285 -90.9175
rradius 43.0885 0 0
rwrist 7.16466 0 0
rhand -24.0926 -21.4944 0
rfingers 7.12502 0 0
rthumb 2.38789 -51.457 0
73
root 6.07427 16.7395 -27.8795 10.6011 3.35614 -4.53706
lfemur -34.9259 12.3124 -15.1695
ltibia 49.0715 0 0
lfoot -20.8258 -5.99583 0
ltoes 28.6176 0 0
rfemur -15.279 -2.2079 22.1276
rtibia 29.2118 0 0
rfoot -27.8226 -16.812 0
rtoes -7.83809 0 0
lowerback -3.47142 2.87895 3.24894
upperback -1.58767 3.74076 0.0758798
thorax 0.506517 1.8613 -1.5972
lowerneck -10.0589 -2.86699 2.5282
upperneck -5.26186 -4.01615 1.87187
head 0.00437421 -2.02505 0.0441618
lclavicle 1.49602e-14 1.04718e-14 0
lhumerus -41.5114 -11.2119 93.2894
lradius 44.3141 0 0
lwrist 8.40386 0 0
lhand -10.4407 2.51968 0
lfingers 7.12502 0 0
lthumb 15.559 31.9109 0
rclavicle 1.49602e-14 1.04718e-14 0
rhumerus -38.9104 1.74778 -90.6721
rradius 43.2696 0 0
rwrist 7.14308 0 0
rhand -23.8994 -21.3739 0
rfingers 7.12502 0 0
rthumb 2.57442 -51.334 0
